<svg version="1.1" xmlns="http://www.w3.org/2000/svg" xmlns:xlink="http://www.w3.org/1999/xlink" x="0px" y="0px" viewBox="0 0 96 60" style="enable-background:new 0 0 96 60;enable-background:new 0 0 96 60" xml:space="preserve" gi-icon="unisporkal/shared/flags/usa"> <style>.icons-unisporkal-shared-flags-usa-svg-st0{fill:#F3F1F1}.icons-unisporkal-shared-flags-usa-svg-st1{fill:#BE2534}.icons-unisporkal-shared-flags-usa-svg-st2{fill:#35335D}.icons-unisporkal-shared-flags-usa-svg-st3{fill:#FFFFFF}</style> <path class="icons-unisporkal-shared-flags-usa-svg-st0" d="M0,0h96v60H0V0z"></path> <g> <rect y="36.9229736" class="icons-unisporkal-shared-flags-usa-svg-st1" width="96" height="4.6150513"></rect> <rect y="27.6920166" class="icons-unisporkal-shared-flags-usa-svg-st1" width="96" height="4.6159668"></rect> <rect y="46.1539917" class="icons-unisporkal-shared-flags-usa-svg-st1" width="96" height="4.6149902"></rect> <rect y="55.3850098" class="icons-unisporkal-shared-flags-usa-svg-st1" width="96" height="4.6149902"></rect> <rect class="icons-unisporkal-shared-flags-usa-svg-st1" width="96" height="4.6149902"></rect> <rect y="18.4619751" class="icons-unisporkal-shared-flags-usa-svg-st1" width="96" height="4.6150513"></rect> <rect y="9.2299805" class="icons-unisporkal-shared-flags-usa-svg-st1" width="96" height="4.6160278"></rect> </g> <path class="icons-unisporkal-shared-flags-usa-svg-st2" d="M0,0h45.1199989v32.3079987H0V0z"></path> <g transform="translate(3.805 2.746)"> <circle class="icons-unisporkal-shared-flags-usa-svg-st3" cx="1.5000001" cy="1.5" r="1.5"></circle> <circle class="icons-unisporkal-shared-flags-usa-svg-st3" cx="1.5000001" cy="9.5" r="1.5"></circle> <circle class="icons-unisporkal-shared-flags-usa-svg-st3" cx="1.5000001" cy="17.5" r="1.5"></circle> <circle class="icons-unisporkal-shared-flags-usa-svg-st3" cx="1.5000001" cy="25.5" r="1.5"></circle> <circle class="icons-unisporkal-shared-flags-usa-svg-st3" cx="8.5" cy="25.5" r="1.5"></circle> <circle class="icons-unisporkal-shared-flags-usa-svg-st3" cx="15.5" cy="25.5" r="1.5"></circle> <circle class="icons-unisporkal-shared-flags-usa-svg-st3" cx="22.5" cy="25.5" r="1.5"></circle> <circle class="icons-unisporkal-shared-flags-usa-svg-st3" cx="29.5" cy="25.5" r="1.5"></circle> <circle class="icons-unisporkal-shared-flags-usa-svg-st3" cx="36.5" cy="25.5" r="1.5"></circle> <circle class="icons-unisporkal-shared-flags-usa-svg-st3" cx="8.5" cy="17.5" r="1.5"></circle> <circle class="icons-unisporkal-shared-flags-usa-svg-st3" cx="15.5" cy="17.5" r="1.5"></circle> <circle class="icons-unisporkal-shared-flags-usa-svg-st3" cx="22.5" cy="17.5" r="1.5"></circle> <circle class="icons-unisporkal-shared-flags-usa-svg-st3" cx="29.5" cy="17.5" r="1.5"></circle> <circle class="icons-unisporkal-shared-flags-usa-svg-st3" cx="36.5" cy="17.5" r="1.5"></circle> <circle class="icons-unisporkal-shared-flags-usa-svg-st3" cx="8.5" cy="9.5" r="1.5"></circle> <circle class="icons-unisporkal-shared-flags-usa-svg-st3" cx="15.5" cy="9.5" r="1.5"></circle> <circle class="icons-unisporkal-shared-flags-usa-svg-st3" cx="22.5" cy="9.5" r="1.5"></circle> <circle class="icons-unisporkal-shared-flags-usa-svg-st3" cx="29.5" cy="9.5" r="1.5"></circle> <circle class="icons-unisporkal-shared-flags-usa-svg-st3" cx="36.5" cy="9.5" r="1.5"></circle> <circle class="icons-unisporkal-shared-flags-usa-svg-st3" cx="5.5" cy="5.5" r="1.5"></circle> <circle class="icons-unisporkal-shared-flags-usa-svg-st3" cx="5.5" cy="13.5" r="1.5"></circle> <circle class="icons-unisporkal-shared-flags-usa-svg-st3" cx="5.5" cy="21.5" r="1.5"></circle> <circle class="icons-unisporkal-shared-flags-usa-svg-st3" cx="12.5" cy="21.5" r="1.5"></circle> <circle class="icons-unisporkal-shared-flags-usa-svg-st3" cx="19.5" cy="21.5" r="1.5"></circle> <circle class="icons-unisporkal-shared-flags-usa-svg-st3" cx="26.5" cy="21.5" r="1.5"></circle> <circle class="icons-unisporkal-shared-flags-usa-svg-st3" cx="33.5" cy="21.5" r="1.5"></circle> <circle class="icons-unisporkal-shared-flags-usa-svg-st3" cx="12.5" cy="13.5" r="1.5"></circle> <circle class="icons-unisporkal-shared-flags-usa-svg-st3" cx="19.5" cy="13.5" r="1.5"></circle> <circle class="icons-unisporkal-shared-flags-usa-svg-st3" cx="26.5" cy="13.5" r="1.5"></circle> <circle class="icons-unisporkal-shared-flags-usa-svg-st3" cx="33.5" cy="13.5" r="1.5"></circle> <circle class="icons-unisporkal-shared-flags-usa-svg-st3" cx="12.5" cy="5.5" r="1.5"></circle> <circle class="icons-unisporkal-shared-flags-usa-svg-st3" cx="19.5" cy="5.5" r="1.5"></circle> <circle class="icons-unisporkal-shared-flags-usa-svg-st3" cx="26.5" cy="5.5" r="1.5"></circle> <circle class="icons-unisporkal-shared-flags-usa-svg-st3" cx="33.5" cy="5.5" r="1.5"></circle> <circle class="icons-unisporkal-shared-flags-usa-svg-st3" cx="8.5" cy="1.5" r="1.5"></circle> <circle class="icons-unisporkal-shared-flags-usa-svg-st3" cx="15.5" cy="1.5" r="1.5"></circle> <circle class="icons-unisporkal-shared-flags-usa-svg-st3" cx="22.5" cy="1.5" r="1.5"></circle> <circle class="icons-unisporkal-shared-flags-usa-svg-st3" cx="29.5" cy="1.5" r="1.5"></circle> <circle class="icons-unisporkal-shared-flags-usa-svg-st3" cx="36.5" cy="1.5" r="1.5"></circle> </g> </svg>