<svg version="1.1" xmlns="http://www.w3.org/2000/svg" xmlns:xlink="http://www.w3.org/1999/xlink" x="0px" y="0px" width="36px" height="37px" viewBox="0 0 36 37" style="enable-background:new 0 0 36 37;enable-background:new 0 0 36 37" xml:space="preserve" gi-icon="unisporkal/getty/instagram"> <path class="icons-unisporkal-getty-instagram-svg__background" d="M31.9375,36.3739548H4.2870922c-2.1999998,0-4-1.7999992-4-4v-28c0-2.1999998,1.8000001-3.9999998,4-3.9999998
	H31.9375c2.2000008,0,4,1.8,4,3.9999998v28C35.9375,34.5739555,34.1375008,36.3739548,31.9375,36.3739548z"></path> <g> <path class="icons-unisporkal-getty-instagram-svg__foreground" d="M18.0116997,9.2595558c2.9086323,0,3.253149,0.0110931,4.4018059,0.0634995
		c1.0620747,0.0484638,1.6388798,0.2259121,2.0227318,0.3750887c0.508461,0.1976023,0.8713417,0.4336824,1.2525158,0.8148556
		c0.3811913,0.3811893,0.6172695,0.744071,0.8148727,1.2525339c0.1491756,0.3838501,0.3266258,0.9606562,0.3750877,2.0227156
		c0.0524063,1.1486721,0.0634995,1.4931898,0.0634995,4.4018202s-0.0110931,3.253149-0.0634995,4.4018059
		c-0.0484619,1.0620747-0.2259121,1.6388798-0.3750877,2.0227318c-0.1976032,0.508461-0.4336815,0.8713417-0.8148556,1.2525158
		c-0.3811913,0.3811913-0.744072,0.6172695-1.252533,0.8148727c-0.383852,0.1491756-0.9606571,0.3266258-2.0227318,0.3750877
		c-1.1484928,0.0524063-1.4929771,0.0634995-4.4018059,0.0634995s-3.253314-0.0110931-4.4018049-0.0634995
		c-1.0620756-0.0484619-1.6388817-0.2259121-2.0227318-0.3750877c-0.5084629-0.1976032-0.8713446-0.4336815-1.2525167-0.8148556
		c-0.3811827-0.3811817-0.6172695-0.744072-0.8148727-1.252533c-0.1491766-0.383852-0.3266239-0.9606571-0.3750877-2.0227184
		c-0.0524063-1.1486702-0.0634995-1.493187-0.0634995-4.4018192s0.0110931-3.2531481,0.0634995-4.4018049
		c0.0484638-1.0620747,0.2259111-1.6388807,0.3750877-2.0227308c0.1976032-0.5084629,0.4336824-0.8713446,0.8148556-1.2525177
		c0.3811893-0.3811893,0.744071-0.6172695,1.2525339-0.8148718c0.3838501-0.1491766,0.9606562-0.3266249,2.0227156-0.3750887
		C14.7585516,9.270649,15.1030684,9.2595558,18.0116997,9.2595558 M18.0116997,7.2968059
		c-2.9584379,0-3.3293982,0.0125299-4.4912758,0.0655403c-1.159483,0.0529075-1.9513187,0.2370529-2.6442404,0.5063424
		C10.1598663,8.147069,9.5523634,8.519537,8.9467611,9.1251307c-0.6055946,0.6056032-0.9780617,1.2131052-1.2564425,1.9294233
		c-0.2692895,0.6929207-0.4534349,1.4847574-0.5063424,2.6442404c-0.0530105,1.1618776-0.0655403,1.5328293-0.0655403,4.4912748
		c0,2.9584389,0.0125299,3.3293972,0.0655403,4.4912739c0.0529075,1.1594849,0.2370529,1.9513206,0.5063424,2.6442413
		c0.2783809,0.7163105,0.6508479,1.323822,1.2564425,1.9294224c0.6056023,0.6055965,1.2131052,0.9780636,1.9294224,1.256443
		c0.6929216,0.2692909,1.4847574,0.4534359,2.6442404,0.5063419c1.1618776,0.0530205,1.5328379,0.0655422,4.4912758,0.0655422
		s3.3293972-0.0125217,4.4912739-0.0655422c1.1594849-0.052906,1.9513187-0.237051,2.6442413-0.5063419
		c0.7163162-0.2783794,1.3238201-0.6508465,1.9294224-1.256443c0.6055965-0.6056004,0.9780636-1.2131042,1.256443-1.9294224
		c0.2692909-0.6929207,0.4534359-1.4847565,0.5063419-2.6442413c0.0530109-1.1618767,0.0655403-1.532835,0.0655403-4.4912739
		s-0.0125294-3.3293972-0.0655403-4.4912748c-0.052906-1.159483-0.237051-1.9513197-0.5063419-2.6442404
		c-0.2783794-0.7163181-0.6508465-1.3238201-1.256443-1.9294233C26.471035,8.519537,25.8635311,8.147069,25.1472149,7.8686886
		c-0.6929226-0.2692895-1.4847565-0.4534349-2.6442413-0.5063424C21.3410969,7.3093357,20.9701385,7.2968059,18.0116997,7.2968059
		L18.0116997,7.2968059z"></path> <path class="icons-unisporkal-getty-instagram-svg__foreground" d="M18.0116997,12.5962315c-3.0893908,0-5.5938387,2.5044451-5.5938387,5.5938377
		s2.5044479,5.5938358,5.5938387,5.5938358s5.5938377-2.5044441,5.5938377-5.5938358S21.1010895,12.5962315,18.0116997,12.5962315z
		 M18.0116997,21.8211555c-2.005394,0-3.6310883-1.6256924-3.6310883-3.6310863s1.6256943-3.6310873,3.6310883-3.6310873
		s3.6310883,1.6256914,3.6310883,3.6310873S20.0170956,21.8211555,18.0116997,21.8211555z"></path> <circle class="icons-unisporkal-getty-instagram-svg__foreground" cx="23.8265514" cy="12.3752174" r="1.3071916"></circle> </g> </svg>