<svg version="1.1" xmlns="http://www.w3.org/2000/svg" xmlns:xlink="http://www.w3.org/1999/xlink" x="0px" y="0px" width="36px" height="37px" viewBox="0 0 36 37" style="enable-background:new 0 0 36 37;enable-background:new 0 0 36 37" xml:space="preserve" gi-icon="unisporkal/getty/twitter"> <path class="icons-unisporkal-getty-twitter-svg__background" d="M31.9375,36.3739548H4.2870922c-2.1999998,0-4-1.7999992-4-4v-28c0-2.1999998,1.8000001-3.9999998,4-3.9999998
	H31.9375c2.2000008,0,4,1.8,4,3.9999998v28C35.9375,34.5739555,34.1375008,36.3739548,31.9375,36.3739548z"></path> <path class="icons-unisporkal-getty-twitter-svg__foreground" d="M28.1384296,11.567132c-0.7866898,0.3490658-1.6323471,0.5848961-2.5191193,0.6906414
	c0.9054966-0.5429382,1.6019611-1.4018774,1.9286022-2.4264336c-0.8465099,0.5025969-1.7848587,0.8680878-2.7842655,1.0648546
	c-0.8007679-0.8531523-1.9410706-1.3854942-3.2023087-1.3854942c-2.4223061,0-4.3862267,1.9641762-4.3862267,4.3860569
	c0,0.3444691,0.0388508,0.6783857,0.1132336,0.9991951c-3.6448584-0.1822138-6.8762779-1.9281769-9.0402851-4.5829945
	C7.8709526,10.961854,7.654654,11.7148352,7.654654,12.5187531c0,1.5211535,0.7739596,2.8646479,1.9504323,3.6504803
	c-0.7185135-0.022213-1.3946428-0.2206821-1.986177-0.5487251v0.055234c0,2.1247721,1.5122218,3.8977575,3.5179267,4.3008661
	c-0.3675756,0.0997009-0.7561302,0.1545963-1.1557064,0.1545963c-0.2819586,0-0.5576572-0.0282993-0.8248539-0.0797882
	c0.5578747,1.742857,2.1775398,3.0103073,4.096571,3.0468616c-1.5001793,1.1760464-3.3911638,1.8774948-5.4475541,1.8774948
	c-0.3534479,0-0.7023001-0.021616-1.0453649-0.0614891c1.9408998,1.2433662,4.246397,1.9697514,6.7244091,1.9697514
	c8.0670433,0,12.4786339-6.6821938,12.4786339-12.4788504c0-0.1894903-0.0049744-0.378767-0.012043-0.5683002
	C26.8061218,13.2196064,27.5491467,12.4470501,28.1384296,11.567132z"></path> </svg>