<svg width="27" height="25" viewBox="0 0 27 25" fill="none" xmlns="http://www.w3.org/2000/svg" class="nE6qluEU7tOOtx3PBj_N"><g clip-path="url(#clip0_994_14909)" fill="#080808"><path d="M2.026 21.404H0v-2.09h1.215v.836h.81v1.254zM1.215 16.675H0v-2.643h1.215v2.643zm0-5.285H0V8.75h1.215v2.639zM1.215 6.105H0v-2.09h2.026v1.254h-.81v.836zM12.262 5.272h-2.56V4.018h2.56v1.254zm-5.116 0h-2.56V4.018h2.552l.008 1.254zM9.759 15.178a2.094 2.094 0 01-1.502-.645 2.231 2.231 0 01-.621-1.55c0-.582.224-1.14.621-1.551a2.094 2.094 0 011.502-.644 2.098 2.098 0 011.502.644c.399.411.623.969.625 1.55 0 .583-.225 1.141-.623 1.553-.4.412-.94.643-1.504.643zm0-3.345a1.097 1.097 0 00-.785.338 1.169 1.169 0 00-.325.812c0 .304.117.596.325.811.208.216.49.338.785.339.295 0 .579-.121.787-.337a1.17 1.17 0 00.327-.813c0-.305-.118-.598-.326-.813a1.097 1.097 0 00-.788-.337z"></path><path d="M19.955 0a6.944 6.944 0 00-4.976 2.134 7.4 7.4 0 00-2.064 5.137c0 .184 0 .368.028.552H3.82v17.181h16.642v-10.49a6.965 6.965 0 004.638-2.301 7.405 7.405 0 001.888-4.942 7.4 7.4 0 00-2.062-5.134A6.944 6.944 0 0019.956 0zm-.506 23.959H4.833v-2.626l2.97-2.927 2.333 2.409 4.95-5.106 4.363 4.508v3.742zm0-5.21l-4.363-4.5-4.95 5.102-2.318-2.392-2.985 2.927V8.864h8.26a7.317 7.317 0 002.276 3.905 6.93 6.93 0 004.08 1.74v4.24zm3.61-10.529l-2.27-2.341v5.436h-1.446V5.879L17.072 8.22l-1.02-1.053 4.014-4.14 4.014 4.14-1.02 1.053z"></path></g><defs><clipPath id="clip0_994_14909"><path fill="#fff" d="M0 0h27v25H0z"></path></clipPath></defs></svg>