<svg version="1.1" xmlns="http://www.w3.org/2000/svg" xmlns:xlink="http://www.w3.org/1999/xlink" x="0px" y="0px" width="36px" height="37px" viewBox="0 0 36 37" style="enable-background:new 0 0 36 37;enable-background:new 0 0 36 37" xml:space="preserve" gi-icon="unisporkal/getty/facebook"> <g> </g> <g> <path class="icons-unisporkal-getty-facebook-svg__background" d="M31.9375,36.3739548H4.2870922c-2.1999998,0-4-1.7999992-4-4v-28c0-2.1999998,1.8000001-3.9999998,4-3.9999998
		H31.9375c2.2000008,0,4,1.8,4,3.9999998v28C35.9375,34.5739555,34.1375008,36.3739548,31.9375,36.3739548z"></path> <path class="icons-unisporkal-getty-facebook-svg__foreground" d="M23.4728584,19.394022l0.5330429-4.133564h-4.0932732V12.621314
		c0-1.1967535,0.3336754-2.0123758,2.0496445-2.0123758l2.1871166-0.0012245V6.9108744
		c-0.3776379-0.0504456-1.6758595-0.1629663-3.1889305-0.1629663c-3.1561947,0-5.3155546,1.9267526-5.3155546,5.464478v3.0480719
		h-3.5697002v4.133564h3.5697002V30h4.267724V19.394022H23.4728584z"></path> </g> </svg>